<?xml version="1.0" standalone="no"?>
<!DOCTYPE svg PUBLIC "-//W3C//DTD SVG 20010904//EN"
 "http://www.w3.org/TR/2001/REC-SVG-20010904/DTD/svg10.dtd">
<svg version="1.0" xmlns="http://www.w3.org/2000/svg"
 width="1024.000000pt" height="698.000000pt" viewBox="0 0 1024.000000 698.000000"
 preserveAspectRatio="xMidYMid meet">

<g transform="translate(0.000000,698.000000) scale(0.100000,-0.100000)"
fill="#000000" stroke="none">
<path d="M7015 6910 c-72 -18 -518 -115 -692 -151 -29 -6 -53 -14 -53 -19 0
-5 36 -62 80 -128 44 -65 80 -123 80 -130 0 -6 -9 -17 -19 -24 -42 -29 -1356
-1296 -1891 -1824 -241 -237 -432 -423 -720 -699 -344 -330 -491 -476 -488
-484 2 -5 51 -54 109 -109 l106 -101 24 26 c13 14 137 134 274 266 138 132
399 385 580 561 182 176 398 386 480 466 83 80 315 305 515 500 201 196 509
495 685 665 176 170 370 357 430 417 l110 108 135 -55 c73 -30 135 -53 138
-51 3 4 76 303 171 699 l18 77 -21 -1 c-12 -1 -34 -4 -51 -9z"/>
<path d="M4824 6795 c-327 -48 -673 -204 -934 -421 -434 -361 -660 -849 -660
-1429 0 -282 42 -494 145 -745 33 -80 140 -270 177 -313 l26 -32 51 50 c28 27
51 53 51 57 0 4 -24 45 -54 90 -93 143 -150 276 -196 459 -25 96 -50 264 -50
337 l0 52 320 0 320 0 0 -32 c0 -97 77 -449 101 -463 4 -3 33 18 64 47 54 52
55 54 45 88 -20 65 -60 281 -60 321 l0 39 228 0 228 0 69 70 69 70 -302 0
-302 0 0 63 c0 103 20 274 47 402 26 125 78 301 91 309 5 3 28 0 52 -5 110
-25 271 -41 460 -47 l205 -7 3 -258 2 -259 70 69 70 68 0 192 0 193 193 0 193
0 69 70 69 70 -262 0 -262 0 0 355 0 355 23 0 c85 0 208 -74 341 -206 79 -79
198 -221 251 -301 15 -24 31 -40 36 -37 5 3 6 -3 2 -13 -4 -10 19 5 50 32 31
28 57 55 57 60 0 13 -126 180 -183 245 -76 85 -159 170 -176 179 -9 5 -13 13
-9 16 7 8 134 -36 230 -78 83 -37 196 -105 251 -150 l48 -40 54 53 c66 65 69
60 -89 159 -231 144 -442 221 -720 262 -153 22 -364 24 -502 4z m194 -544 l-3
-353 -135 1 c-151 2 -277 13 -423 38 -92 15 -98 18 -95 38 7 33 122 231 181
310 91 122 223 252 291 285 60 29 164 53 179 40 4 -3 6 -165 5 -359z m-408
329 c0 -5 -9 -15 -21 -22 -32 -20 -166 -183 -227 -278 -48 -74 -143 -247 -154
-282 -8 -23 -349 119 -347 145 0 6 32 39 71 72 187 160 364 267 558 336 117
42 120 43 120 29z m-771 -605 c49 -24 138 -61 198 -81 59 -21 109 -38 111 -39
1 -1 -13 -49 -32 -106 -58 -178 -106 -471 -106 -645 l0 -64 -315 0 -315 0 0
24 c0 59 32 259 55 346 52 191 140 376 254 532 31 43 57 77 59 78 1 0 42 -20
91 -45z m228 -487 c-3 -8 -6 -5 -6 6 -1 11 2 17 5 13 3 -3 4 -12 1 -19z m80
-360 c-3 -8 -6 -5 -6 6 -1 11 2 17 5 13 3 -3 4 -12 1 -19z m-900 -90 c-3 -7
-5 -2 -5 12 0 14 2 19 5 13 2 -7 2 -19 0 -25z m790 -180 c-3 -8 -6 -5 -6 6 -1
11 2 17 5 13 3 -3 4 -12 1 -19z m-790 -60 c-3 -7 -5 -2 -5 12 0 14 2 19 5 13
2 -7 2 -19 0 -25z m820 -160 c-3 -8 -6 -5 -6 6 -1 11 2 17 5 13 3 -3 4 -12 1
-19z m-800 -10 c-3 -8 -6 -5 -6 6 -1 11 2 17 5 13 3 -3 4 -12 1 -19z"/>
<path d="M6279 5743 l-99 -97 0 -1263 0 -1263 320 0 320 0 0 1360 0 1360 -221
0 -222 0 -98 -97z"/>
<path d="M5478 4969 l-138 -131 0 -859 0 -859 335 0 335 0 0 990 0 990 -197 0
-198 0 -137 -131z m-121 -211 c-3 -7 -5 -2 -5 12 0 14 2 19 5 13 2 -7 2 -19 0
-25z m0 -310 c-2 -13 -4 -5 -4 17 -1 22 1 32 4 23 2 -10 2 -28 0 -40z m0 -210
c-2 -24 -4 -5 -4 42 0 47 2 66 4 43 2 -24 2 -62 0 -85z m0 -160 c-3 -8 -6 -5
-6 6 -1 11 2 17 5 13 3 -3 4 -12 1 -19z m0 -110 c-2 -13 -4 -5 -4 17 -1 22 1
32 4 23 2 -10 2 -28 0 -40z m0 -75 c-3 -10 -5 -2 -5 17 0 19 2 27 5 18 2 -10
2 -26 0 -35z m0 -310 c-2 -16 -4 -5 -4 22 0 28 2 40 4 28 2 -13 2 -35 0 -50z
m0 -170 c-3 -10 -5 -2 -5 17 0 19 2 27 5 18 2 -10 2 -26 0 -35z m0 -140 c-2
-21 -4 -4 -4 37 0 41 2 58 4 38 2 -21 2 -55 0 -75z"/>
<path d="M4664 4184 l-174 -166 0 -449 0 -449 340 0 340 0 0 615 0 615 -166 0
-165 0 -175 -166z"/>
<path d="M5086 2209 c-80 -12 -175 -58 -234 -113 -53 -50 -107 -139 -96 -158
4 -6 3 -8 -4 -4 -14 8 -29 -40 -42 -132 -26 -190 59 -384 210 -474 85 -50 146
-68 241 -68 151 0 281 66 359 182 46 70 70 163 70 277 l0 81 -210 0 -210 0 0
-80 0 -80 110 0 c81 0 110 -3 110 -12 0 -35 -25 -92 -53 -125 -81 -92 -236
-99 -328 -15 -64 57 -91 121 -97 228 -6 111 14 184 65 244 96 112 271 118 378
15 l46 -45 75 36 c40 19 74 40 74 46 0 19 -50 78 -101 118 -84 66 -234 99
-363 79z m491 -526 c-2 -21 -4 -4 -4 37 0 41 2 58 4 38 2 -21 2 -55 0 -75z
m-180 -105 c-3 -8 -6 -5 -6 6 -1 11 2 17 5 13 3 -3 4 -12 1 -19z"/>
<path d="M7920 2210 c-60 -11 -125 -35 -176 -65 -53 -31 -136 -121 -163 -178
-72 -148 -62 -371 22 -503 33 -52 114 -127 167 -154 150 -76 333 -68 472 21
43 28 128 120 128 139 0 5 -32 25 -71 45 l-70 36 -55 -50 c-60 -55 -101 -71
-180 -71 -107 0 -191 55 -236 154 -19 43 -23 67 -23 151 1 73 6 111 18 140 30
67 68 115 116 143 40 23 57 27 127 27 71 0 85 -3 125 -29 24 -15 56 -42 70
-59 l27 -31 76 39 c42 21 76 44 76 50 0 22 -51 84 -99 119 -27 20 -75 45 -106
56 -66 23 -182 32 -245 20z m-363 -392 c-3 -8 -6 -5 -6 6 -1 11 2 17 5 13 3
-3 4 -12 1 -19z m160 -75 c-3 -10 -5 -4 -5 12 0 17 2 24 5 18 2 -7 2 -21 0
-30z"/>
<path d="M1160 1735 l0 -465 295 0 295 0 0 80 0 80 -205 0 -205 0 0 115 0 115
185 0 185 0 0 75 0 75 -185 0 -186 0 3 113 3 112 203 3 c180 2 203 4 198 18
-3 9 -6 45 -6 80 l0 64 -290 0 -290 0 0 -465z m537 28 c-3 -10 -5 -4 -5 12 0
17 2 24 5 18 2 -7 2 -21 0 -30z m-520 -105 c-2 -13 -4 -3 -4 22 0 25 2 35 4
23 2 -13 2 -33 0 -45z"/>
<path d="M1930 1735 l0 -465 95 0 95 0 2 292 3 291 116 -189 117 -189 53 -2
54 -3 95 162 c52 88 94 167 94 174 -1 8 2 11 7 9 4 -3 15 7 23 22 14 26 15 1
16 -269 l0 -298 95 0 95 0 -1 465 -2 465 -100 0 c-85 0 -98 -2 -93 -16 3 -8 2
-13 -3 -10 -4 3 -68 -98 -142 -224 -74 -126 -137 -230 -140 -230 -3 0 -11 12
-18 28 -7 15 -50 90 -96 167 -45 77 -101 173 -125 213 l-42 72 -99 0 -99 0 0
-465z m787 23 c-2 -13 -4 -3 -4 22 0 25 2 35 4 23 2 -13 2 -33 0 -45z m0 -375
c-1 -60 -3 -11 -3 107 0 118 2 167 3 108 2 -60 2 -156 0 -215z m-770 235 c-3
-8 -6 -5 -6 6 -1 11 2 17 5 13 3 -3 4 -12 1 -19z"/>
<path d="M3130 1735 l0 -465 295 0 295 0 0 80 0 80 -195 0 -195 0 0 115 0 115
175 0 175 0 0 75 0 75 -175 0 -175 0 0 115 0 115 190 0 190 0 0 80 0 80 -290
0 -290 0 0 -465z m187 253 c-3 -8 -6 -5 -6 6 -1 11 2 17 5 13 3 -3 4 -12 1
-19z m0 -75 c-3 -10 -5 -2 -5 17 0 19 2 27 5 18 2 -10 2 -26 0 -35z m0 -335
c-2 -13 -4 -3 -4 22 0 25 2 35 4 23 2 -13 2 -33 0 -45z"/>
<path d="M3890 1736 l0 -466 100 0 100 0 0 175 0 175 49 0 48 0 45 -77 c25
-43 71 -122 102 -175 l57 -98 104 0 c58 0 105 2 105 5 0 2 -19 35 -41 72 -39
64 -60 98 -145 230 -19 29 -34 57 -34 62 0 5 17 15 37 22 59 19 129 97 148
164 31 106 2 219 -72 285 -82 72 -127 82 -380 88 l-223 4 0 -466z m17 -3 c-1
-60 -3 -11 -3 107 0 118 2 167 3 108 2 -60 2 -156 0 -215z m401 287 c52 -24
77 -73 68 -133 -14 -88 -60 -118 -193 -125 l-93 -5 0 142 0 141 88 0 c64 0 98
-5 130 -20z m-401 -657 c-1 -49 -3 -9 -3 87 0 96 2 136 3 88 2 -49 2 -127 0
-175z"/>
<path d="M5780 1735 l0 -465 295 0 295 0 0 80 0 80 -200 0 -200 0 0 115 0 115
175 0 175 0 0 75 0 75 -175 0 -175 0 0 115 0 115 195 0 195 0 0 80 0 80 -290
0 -290 0 0 -465z m177 163 c-3 -8 -6 -5 -6 6 -1 11 2 17 5 13 3 -3 4 -12 1
-19z m350 -215 c-3 -10 -5 -4 -5 12 0 17 2 24 5 18 2 -7 2 -21 0 -30z m-350
-165 c-3 -8 -6 -5 -6 6 -1 11 2 17 5 13 3 -3 4 -12 1 -19z"/>
<path d="M6540 1735 l0 -465 93 0 93 0 -4 308 c-4 349 -11 332 85 191 32 -47
123 -178 203 -292 l145 -206 93 -1 92 0 0 465 0 465 -90 0 -90 0 -2 -311 -3
-311 -97 143 c-53 79 -149 219 -213 312 l-116 167 -95 0 -94 0 0 -465z m637
403 c-2 -13 -4 -5 -4 17 -1 22 1 32 4 23 2 -10 2 -28 0 -40z m150 0 c-3 -8 -6
-5 -6 6 -1 11 2 17 5 13 3 -3 4 -12 1 -19z m-770 -830 c-3 -8 -6 -5 -6 6 -1
11 2 17 5 13 3 -3 4 -12 1 -19z"/>
<path d="M8540 1735 l0 -465 285 0 285 0 0 80 0 80 -195 0 -195 0 0 115 0 115
175 0 175 0 0 75 0 75 -175 0 -175 0 0 115 0 115 195 0 195 0 0 80 0 80 -285
0 -285 0 0 -465z m517 -37 c-2 -18 -4 -4 -4 32 0 36 2 50 4 33 2 -18 2 -48 0
-65z"/>
<path d="M1787 786 c-93 -35 -164 -110 -188 -201 -6 -22 -9 -76 -7 -120 7
-131 58 -208 173 -261 114 -54 292 -10 348 85 l18 30 -51 26 c-27 14 -50 21
-50 15 0 -5 -24 -23 -52 -40 -88 -51 -169 -33 -224 49 -77 117 -15 298 110
316 51 8 116 -16 154 -58 l24 -25 44 26 c24 15 44 32 44 39 0 21 -61 83 -104
105 -52 27 -183 35 -239 14z"/>
<path d="M2557 786 c-123 -44 -199 -155 -200 -291 -1 -136 53 -228 165 -284
111 -56 252 -39 342 40 25 22 57 65 73 97 24 49 28 68 27 142 0 66 -6 97 -24
138 -28 65 -102 134 -167 156 -56 19 -164 20 -216 2z m160 -107 c38 -14 71
-46 95 -93 29 -57 23 -168 -12 -220 -70 -103 -223 -97 -279 13 -86 168 39 360
196 300z"/>
<path d="M4125 787 c-98 -45 -142 -161 -94 -246 29 -52 60 -70 168 -102 104
-31 132 -51 123 -94 -12 -68 -162 -73 -234 -9 -15 15 -20 13 -57 -17 -22 -19
-41 -40 -41 -46 0 -22 79 -71 134 -84 74 -16 182 -8 230 17 22 11 54 37 70 58
27 33 31 46 31 99 0 102 -47 147 -188 183 -86 21 -127 47 -127 78 0 71 115 89
202 31 l40 -27 39 38 39 38 -23 24 c-43 47 -95 65 -192 69 -62 2 -99 -1 -120
-10z m322 -434 c-3 -10 -5 -2 -5 17 0 19 2 27 5 18 2 -10 2 -26 0 -35z"/>
<path d="M8167 786 c-65 -24 -129 -82 -165 -151 -24 -44 -27 -61 -27 -145 0
-110 19 -163 79 -223 65 -66 108 -82 216 -82 79 0 102 4 136 22 89 48 144 147
144 260 l0 53 -127 0 c-171 0 -169 1 -165 -61 l4 -49 73 0 c41 0 76 -4 79 -9
9 -14 -52 -91 -80 -101 -81 -31 -176 10 -208 89 -24 62 -21 158 7 211 49 93
166 117 248 50 l41 -33 32 18 c17 10 39 25 48 33 16 13 16 16 -4 42 -11 16
-43 41 -72 56 -42 23 -65 29 -136 31 -55 2 -98 -2 -123 -11z m-180 -318 c-3
-7 -5 -2 -5 12 0 14 2 19 5 13 2 -7 2 -19 0 -25z m550 -30 c-2 -13 -4 -3 -4
22 0 25 2 35 4 23 2 -13 2 -33 0 -45z"/>
<path d="M3220 490 l0 -300 65 0 65 0 2 202 3 202 141 -200 141 -199 57 -3 56
-3 0 301 0 300 -60 0 -60 0 0 -180 c0 -99 -4 -180 -8 -180 -4 0 -64 81 -132
180 l-125 180 -72 0 -73 0 0 -300z m17 43 c-1 -43 -3 -8 -3 77 0 85 2 120 3
78 2 -43 2 -113 0 -155z m0 -175 c-2 -18 -4 -4 -4 32 0 36 2 50 4 33 2 -18 2
-48 0 -65z"/>
<path d="M4730 583 c0 -222 7 -268 47 -321 73 -98 287 -110 381 -22 64 62 67
72 70 323 l3 227 -65 0 -66 0 0 -200 c0 -151 -4 -209 -14 -235 -25 -59 -107
-83 -165 -49 -53 32 -56 43 -59 272 l-3 212 -65 0 -64 0 0 -207z m117 105 c-3
-8 -6 -5 -6 6 -1 11 2 17 5 13 3 -3 4 -12 1 -19z m370 -240 c-1 -40 -3 -8 -3
72 0 80 2 112 3 73 2 -40 2 -106 0 -145z m-370 90 c-3 -8 -6 -5 -6 6 -1 11 2
17 5 13 3 -3 4 -12 1 -19z"/>
<path d="M5510 490 l0 -300 200 0 200 0 0 55 0 55 -135 0 -135 0 0 245 0 245
-65 0 -65 0 0 -300z m17 108 c-2 -18 -4 -6 -4 27 0 33 2 48 4 33 2 -15 2 -42
0 -60z m0 -180 c-3 -7 -5 -2 -5 12 0 14 2 19 5 13 2 -7 2 -19 0 -25z m0 -110
c-2 -13 -4 -3 -4 22 0 25 2 35 4 23 2 -13 2 -33 0 -45z"/>
<path d="M6010 735 l0 -55 90 0 90 0 0 -245 0 -245 65 0 65 0 0 245 0 245 95
0 95 0 0 55 0 55 -250 0 -250 0 0 -55z m487 -27 c-3 -7 -5 -2 -5 12 0 14 2 19
5 13 2 -7 2 -19 0 -25z m-290 -85 c-3 -10 -5 -4 -5 12 0 17 2 24 5 18 2 -7 2
-21 0 -30z"/>
<path d="M6780 490 l0 -300 65 0 65 0 0 300 0 300 -65 0 -65 0 0 -300z m117
-37 c-2 -27 -3 -5 -3 47 0 52 1 74 3 48 2 -27 2 -69 0 -95z m0 -240 c-3 -10
-5 -4 -5 12 0 17 2 24 5 18 2 -7 2 -21 0 -30z"/>
<path d="M7180 490 l0 -300 65 0 65 0 0 203 c0 165 3 198 13 180 6 -12 32 -50
57 -85 25 -35 81 -116 125 -181 l80 -116 58 -1 57 0 0 300 0 300 -60 0 -60 0
0 -187 c-1 -151 -3 -185 -13 -171 -7 9 -66 94 -131 188 l-119 170 -69 0 -68 0
0 -300z m507 228 c-3 -7 -5 -2 -5 12 0 14 2 19 5 13 2 -7 2 -19 0 -25z m0
-140 c-2 -24 -4 -7 -4 37 0 44 2 63 4 43 2 -21 2 -57 0 -80z m-390 -225 c-1
-43 -3 -8 -3 77 0 85 2 120 3 78 2 -43 2 -113 0 -155z m390 -65 c-1 -46 -3
-11 -3 77 0 88 2 125 3 83 2 -42 2 -114 0 -160z m-390 -70 c-2 -13 -4 -5 -4
17 -1 22 1 32 4 23 2 -10 2 -28 0 -40z"/>
</g>
</svg>
